<?xml version="1.0" encoding="utf-8"?>
<!-- Generator: Adobe Illustrator 22.1.0, SVG Export Plug-In . SVG Version: 6.00 Build 0)  -->
<svg version="1.1" id="Capa_1" xmlns="http://www.w3.org/2000/svg" xmlns:xlink="http://www.w3.org/1999/xlink" x="0px" y="0px"
	 viewBox="0 0 100 55" style="enable-background:new 0 0 100 55;" xml:space="preserve">
<style type="text/css">
	.st0{fill:#FFFFFF;}
</style>
<g>
	<g>
		<path class="st0" d="M50,54.9c-11.2,0-23.3-4.4-34.9-12.9c-8.8-6.2-14-12.5-14.4-12.7c-1-1-1-2.6,0-3.8c0.2-0.2,5.6-6.4,14.4-12.7
			C26.7,4.4,38.8-0.1,50-0.1s23.3,4.4,34.9,12.9c8.8,6.2,14,12.5,14.4,12.7c1,1,1,2.6,0,3.8c-0.2,0.2-5.6,6.4-14.4,12.7
			C73.3,50.5,61.2,54.9,50,54.9z M6.9,27.6c2.2,2.2,6.2,6.2,11.6,10.1c7.4,5.2,18.9,11.7,31.5,11.7s24.1-6.4,31.5-11.7
			c5.4-3.8,9.6-7.9,11.6-10.1c-2.2-2.2-6.2-6.2-11.6-10.1C74.1,12.2,62.6,5.8,50,5.8s-24.1,6.4-31.5,11.7
			C13.1,21.3,8.9,25.3,6.9,27.6z"/>
	</g>
	<g>
		<path class="st0" d="M50,45.3c-9.6,0-17.5-7.9-17.5-17.7S40.2,9.8,50,9.8c4.2,0,8.4,1.6,11.6,4.4c1.2,1,1.2,2.8,0.2,4
			c-1,1.2-2.8,1.2-4,0.2c-2.2-1.8-5-3-7.8-3c-6.6,0-11.8,5.4-11.8,11.9S43.6,39.2,50,39.2c6.6,0,11.8-5.4,11.8-11.9
			c0-1.6,1.2-2.8,2.8-2.8c1.6,0,2.8,1.2,2.8,2.8C67.5,37.2,59.6,45.3,50,45.3z"/>
	</g>
	<g>
		<path class="st0" d="M50,33.2c-3.2,0-5.6-2.6-5.6-5.6s2.6-5.6,5.6-5.6c3.2,0,5.6,2.6,5.6,5.6S53.2,33.2,50,33.2z"/>
	</g>
</g>
</svg>
